<svg viewBox="0 0 20 21" fill="none" xmlns="http://www.w3.org/2000/svg"><g clip-path="url(#a)"><path d="M19.133 11.836a.675.675 0 0 0-.564.122 7.203 7.203 0 0 1-2.186 1.277 6.843 6.843 0 0 1-2.48.442 7.22 7.22 0 0 1-5.106-2.111 7.22 7.22 0 0 1-2.111-5.107c0-.835.147-1.645.392-2.382a6.592 6.592 0 0 1 1.179-2.111.627.627 0 0 0-.098-.884C7.987.959 7.79.91 7.594.959c-2.087.565-3.904 1.817-5.205 3.487A9.685 9.685 0 0 0 .4 10.338a9.687 9.687 0 0 0 2.848 6.874 9.644 9.644 0 0 0 6.875 2.848 9.763 9.763 0 0 0 6.015-2.087 9.68 9.68 0 0 0 3.437-5.376.596.596 0 0 0-.442-.761Z" fill="currentColor"/></g><defs><clipPath id="a"><path fill="currentColor" transform="translate(.4 .9)" d="M0 0h19.2v19.2H0z"/></clipPath></defs></svg>
