<svg viewBox="0 0 20 21" fill="none" xmlns="http://www.w3.org/2000/svg"><g clip-path="url(#a)"><path d="M10 5.691a4.815 4.815 0 0 0-4.808 4.81A4.815 4.815 0 0 0 10 15.31a4.815 4.815 0 0 0 4.809-4.81A4.815 4.815 0 0 0 10 5.69Zm0-1.413a.938.938 0 0 1-.937-.938V1.839a.938.938 0 0 1 1.876 0v1.5a.938.938 0 0 1-.938.939Zm0 12.445a.938.938 0 0 0-.937.938v1.5a.938.938 0 1 0 1.876 0v-1.5a.939.939 0 0 0-.938-.939ZM14.4 6.1a.939.939 0 0 1 0-1.326l1.062-1.062a.938.938 0 1 1 1.327 1.327L15.727 6.1a.938.938 0 0 1-1.327 0Zm-8.8 8.8a.938.938 0 0 0-1.326 0l-1.062 1.062a.938.938 0 0 0 1.327 1.327l1.062-1.062a.937.937 0 0 0 0-1.326Zm10.623-4.4c0-.518.42-.938.938-.938h1.502a.939.939 0 1 1 0 1.876H17.16a.94.94 0 0 1-.938-.938Zm-12.445 0a.939.939 0 0 0-.938-.938h-1.5a.938.938 0 1 0 0 1.876h1.5a.938.938 0 0 0 .938-.938ZM14.4 14.9a.94.94 0 0 1 1.327 0l1.062 1.062a.938.938 0 1 1-1.327 1.327L14.4 16.227a.936.936 0 0 1 0-1.326ZM5.6 6.1a.938.938 0 0 0 0-1.326L4.54 3.712A.938.938 0 0 0 3.211 5.04L4.274 6.1a.937.937 0 0 0 1.327 0Z" fill="currentColor"/></g><defs><clipPath id="a"><path fill="currentColor" transform="translate(.4 .9)" d="M0 0h19.2v19.2H0z"/></clipPath></defs></svg>
