<svg viewBox="0 0 125 102" fill="none" xmlns="http://www.w3.org/2000/svg"><path d="M52.885 2.059H23.53c-8.007 0-14.509 6.483-14.509 14.508v69.55c0 8.006 6.484 14.508 14.509 14.508h41.86c8.008 0 14.509-6.484 14.509-14.509V29.074L52.885 2.059Z" fill="#fff"/><path d="M65.392 101.776h-41.86c-8.628 0-15.66-7.015-15.66-15.66V16.567C7.888 7.922 14.903.907 23.531.907h29.335c.301 0 .602.124.815.337l27.015 27.015c.213.213.337.514.337.815v57.042c.018 8.627-6.998 15.66-15.642 15.66ZM23.532 3.21c-7.353 0-13.358 5.988-13.358 13.357v69.55c0 7.35 5.988 13.356 13.357 13.356h41.86c7.352 0 13.358-5.987 13.358-13.357V29.552L52.407 3.21H23.53Z" fill="#000"/><path d="m52.884 2.059 27.015 27.015H58.641a5.757 5.757 0 0 1-5.757-5.758V2.06Z" fill="#D9D9D9"/><path d="M79.9 30.226H58.64c-3.808 0-6.909-3.1-6.909-6.909V2.06c0-.46.284-.885.709-1.063a1.149 1.149 0 0 1 1.258.248L80.66 28.207c.248.212.39.513.39.868a1.15 1.15 0 0 1-1.152 1.151ZM54.034 4.841v18.476a4.608 4.608 0 0 0 4.606 4.606h18.477L54.035 4.841Z" fill="#000"/><path d="M20.058 49.165c0-.478.39-.868.85-.868h4.871c3.437 0 5.705 1.825 5.705 4.836v.035c0 3.296-2.746 4.996-6.006 4.996h-3.702v4.624a.87.87 0 0 1-.868.868c-.46 0-.85-.39-.85-.868V49.165Zm5.491 7.44c2.534 0 4.181-1.346 4.181-3.366v-.035c0-2.179-1.63-3.313-4.092-3.313h-3.862v6.714h3.773ZM34.62 49.165c0-.478.39-.868.85-.868h4.447c4.8 0 8.113 3.295 8.113 7.582v.035c0 4.287-3.312 7.636-8.113 7.636H35.47c-.46 0-.85-.39-.85-.869V49.165Zm5.297 12.808c3.862 0 6.324-2.622 6.324-6.006v-.035c0-3.384-2.462-6.04-6.324-6.04h-3.578v12.08h3.578ZM51.679 49.165c0-.478.39-.868.85-.868h9.442c.443 0 .78.354.78.78 0 .442-.355.814-.78.814h-8.574v5.456h7.582c.443 0 .78.355.78.78 0 .443-.355.78-.78.78h-7.582v5.88a.87.87 0 0 1-.868.869c-.46 0-.85-.39-.85-.868V49.165Z" fill="#fff"/><path d="m24.227 33.93 3.592-13.232h3.337l-1.135 5.896-3.591 12.434h-2.728l.525-5.099Zm-1.643-13.232 2.405 13.18.255 5.15H21.99l-4.506-18.33h5.099Zm11.825 12.926 2.388-12.926h5.1l-4.473 18.33h-3.253l.238-5.404Zm-2.846-12.926 3.625 13.163.525 5.167h-2.761l-3.558-12.417-1.084-5.913h3.253Z" fill="#0369A1"/><path d="M44.912 37.049h26.021M17.445 45.724h52.042M17.445 55.843h52.042M17.445 65.962h52.042M17.445 76.081h52.042M17.445 86.2h52.042" stroke="#0369A1" stroke-width="3.614" stroke-linecap="round"/><rect x="54.671" y="62.224" width="65.775" height="32.526" rx="4.698" fill="#A32912"/><rect x="54.671" y="62.224" width="65.775" height="32.526" rx="4.698" stroke="#000" stroke-width="2.168"/><path d="M72.375 80.558h-4.65v-3.214h4.65c.686 0 1.237-.115 1.652-.343.424-.229.733-.542.928-.94.203-.407.305-.865.305-1.373 0-.525-.102-1.012-.305-1.46a2.451 2.451 0 0 0-.928-1.106c-.415-.28-.966-.42-1.652-.42h-3.15v15.285h-4.143V68.488h7.293c1.474 0 2.736.267 3.787.8 1.058.534 1.867 1.267 2.426 2.199.568.923.852 1.982.852 3.176 0 1.194-.284 2.232-.852 3.113-.559.88-1.367 1.567-2.426 2.058-1.05.483-2.313.724-3.787.724Zm15.438 6.43h-4.066l.025-3.203h4.04c.924 0 1.703-.211 2.338-.635.636-.432 1.119-1.067 1.449-1.906.33-.847.495-1.876.495-3.087v-.851c0-.915-.093-1.72-.279-2.414-.186-.703-.462-1.292-.826-1.766a3.416 3.416 0 0 0-1.36-1.068c-.533-.237-1.147-.356-1.842-.356h-4.116v-3.214h4.116c1.254 0 2.397.212 3.43.635a7.685 7.685 0 0 1 2.694 1.817 8.227 8.227 0 0 1 1.766 2.795c.415 1.076.623 2.275.623 3.596v.826c0 1.313-.207 2.511-.623 3.596a8.228 8.228 0 0 1-1.766 2.795 7.798 7.798 0 0 1-2.68 1.804c-1.034.423-2.173.635-3.418.635Zm-1.716-18.5v18.5h-4.142v-18.5h4.142Zm16.873 0v18.5h-4.142v-18.5h4.142Zm7.281 7.801v3.202h-8.437v-3.202h8.437Zm.813-7.801v3.215h-9.25v-3.215h9.25Z" fill="#fff"/><path d="M117.693 37.237c-.001 0-.01-.01-.04-.02a3.294 3.294 0 0 0-.48.096c-.39.104-.936.286-1.663.552l-.28.106c-.505.192-.938.356-1.298.453-.441.119-.902.175-1.373-.007-.446-.172-.785-.517-1.098-.901-.267-.33-.575-.768-.949-1.302l-.209-.297c-1.56-2.19-2.588-3.314-4.396-4.783l-.002-.002c-4.003-3.277-9.638-4.37-15.635-2.934-.111.028-.22.055-.323.083.456.196 1.014.422 1.653.668 2.224.853 3.744 1.532 4.966 2.353 1.24.832 2.14 1.787 3.165 3.14.629.817 1.554 2.47 2.298 3.96.376.755.717 1.49.961 2.084.121.296.222.568.292.796.035.114.065.228.085.336.017.089.038.23.021.38-.018.17-.067.365-.197.559a1.547 1.547 0 0 1-.453.425c-.308.2-.788.409-1.474.69-.884.361-1.56.71-2 1.006a2.88 2.88 0 0 0-.378.293c.035.045.077.09.122.13l.01.007.132.078c.112.065.267.15.462.255.389.21.925.49 1.569.82 1.287.663 2.997 1.523 4.815 2.42 2.932 1.432 4.593 2.23 5.579 2.648.498.21.783.306.954.344.027.006.048.01.065.012l.034-.048c.091-.137.221-.387.418-.855.391-.928.981-2.546 2.003-5.409l.567-1.606c1.034-2.934 1.89-5.359 2.019-5.739.126-.384.118-.62.087-.728-.013-.047-.028-.061-.029-.063Zm-18.896 7.591v.003-.003Zm-.016.263.003-.006a.025.025 0 0 0-.003.006Zm13.866 6.6h-.004.004Zm-.084.031a.02.02 0 0 0-.003.003l.003-.003Z" fill="#fff" stroke="#000" stroke-width="1.446"/></svg>
