<svg width="18" height="18" viewBox="0 0 18 18" fill="none" xmlns="http://www.w3.org/2000/svg">
<path d="M4.35734 16.9094C4.46519 16.9767 4.58628 17.0075 4.70761 16.9985C4.82894 16.9894 4.94594 16.9409 5.04603 16.8582L13.713 9.65778C13.8015 9.58416 13.8739 9.48587 13.9239 9.37134C13.9739 9.2568 14 9.12944 14 9.00015C14 8.87086 13.9739 8.7435 13.9239 8.62897C13.8739 8.51443 13.8015 8.41614 13.713 8.34252L5.04603 1.14214C4.94601 1.05909 4.82897 1.01045 4.70757 1.00151C4.58616 0.992556 4.46504 1.02363 4.3573 1.09137C4.24956 1.1591 4.15931 1.26091 4.09633 1.38578C4.03335 1.51065 4.00004 1.65381 4 1.79977L4 16.2005C3.99998 16.3466 4.03327 16.4898 4.09626 16.6148C4.15925 16.7397 4.24954 16.8416 4.35734 16.9094Z" fill="#09A598"/>
</svg>
