<svg width="18" height="18" viewBox="0 0 18 18" fill="none" xmlns="http://www.w3.org/2000/svg">
  <path
    d="M14.4332 9.6165C14.5309 9.5477 14.6108 9.45563 14.666 9.34823C14.7212 9.24084 14.75 9.12133 14.75 9C14.75 8.87867 14.7212 8.75916 14.666 8.65177C14.6108 8.54437 14.5309 8.45231 14.4332 8.3835L4.90052 1.6335C4.79057 1.55537 4.66179 1.50955 4.52816 1.50102C4.39454 1.4925 4.26119 1.52159 4.14259 1.58514C4.024 1.64868 3.9247 1.74426 3.85549 1.86147C3.78627 1.97869 3.74979 2.11307 3.75 2.25L3.75 15.75C3.75055 15.8866 3.78751 16.0205 3.85689 16.1372C3.92627 16.254 4.02545 16.3492 4.14377 16.4126C4.26209 16.476 4.39507 16.5052 4.5284 16.4971C4.66174 16.489 4.79039 16.4438 4.90052 16.3665L14.4332 9.6165Z"
    fill="currentColor"
  />
</svg>
