<svg width="18" height="18" viewBox="0 0 18 18" fill="none" xmlns="http://www.w3.org/2000/svg">
  <path
    d="M13.712 9.57639C13.8008 9.51217 13.8734 9.42624 13.9236 9.32599C13.9738 9.22575 14 9.1142 14 9.00095C14 8.8877 13.9738 8.77615 13.9236 8.67591C13.8734 8.57566 13.8008 8.48973 13.712 8.4255L5.04593 2.12501C4.94597 2.05208 4.8289 2.00932 4.70742 2.00136C4.58595 1.9934 4.46472 2.02055 4.3569 2.07987C4.24909 2.13918 4.15882 2.22839 4.0959 2.3378C4.03298 2.44721 3.99981 2.57264 4 2.70046L4 15.3014C4.0005 15.429 4.0341 15.5539 4.09717 15.6629C4.16024 15.7719 4.25041 15.8607 4.35797 15.9199C4.46553 15.9791 4.58642 16.0063 4.70764 15.9988C4.82886 15.9912 4.94581 15.949 5.04593 15.8769L13.712 9.57639Z"
    fill="currentColor"
  />
</svg>
